# xmcd CD database file
#
# Track frame offsets:
#	150
#	17555
#	32632
#	50135
#	67267
#	85605
#	100320
#	116117
#	128790
#	140777
#
# Disc length: 2139 seconds
#
# Revision: 2
# Processed by: cddbd v1.5.1PL2 Copyright (c) Steve Scherf et al.
# Submitted via: CDex 1.51
#
DISCID=9008590a
DTITLE=Hearthill - Soul Food
DYEAR=1991
DGENRE=Rock
TTITLE0=Gas Station
TTITLE1=Some kinda heaven
TTITLE2=Soul tattoo
TTITLE3=Where´s the party
TTITLE4=Small blue things
TTITLE5=Kid universe
TTITLE6=Lucky
TTITLE7=Homesick superman
TTITLE8=Nobody
TTITLE9=Funny morning
EXTD=YEAR: 1991
EXTT0=
EXTT1=
EXTT2=
EXTT3=
EXTT4=
EXTT5=
EXTT6=
EXTT7=
EXTT8=
EXTT9=
PLAYORDER=
